<svg id="visual" viewBox="0 0 900 600" width="900" height="600" xmlns="http://www.w3.org/2000/svg" xmlns:xlink="http://www.w3.org/1999/xlink" version="1.1"><g stroke-width="1" stroke-linejoin="bevel"><path d="M499 331L499 396L574 362Z" fill="#f4f4f4" stroke="#f4f4f4"></path><path d="M574 362L630 324L499 331Z" fill="#fdfdfd" stroke="#fdfdfd"></path><path d="M499 396L604 472L574 362Z" fill="#f4f4f4" stroke="#f4f4f4"></path><path d="M574 362L604 472L630 324Z" fill="#f4f4f4" stroke="#f4f4f4"></path><path d="M499 396L524 505L604 472Z" fill="#f6f6f6" stroke="#f6f6f6"></path><path d="M499 331L381 387L499 396Z" fill="#f6f6f6" stroke="#f6f6f6"></path><path d="M499 396L438 535L524 505Z" fill="#ffffff" stroke="#ffffff"></path><path d="M630 324L510 213L499 331Z" fill="#fafafa" stroke="#fafafa"></path><path d="M499 331L364 279L381 387Z" fill="#fdfdfd" stroke="#fdfdfd"></path><path d="M727 405L675 299L630 324Z" fill="#f6f6f6" stroke="#f6f6f6"></path><path d="M630 324L579 175L510 213Z" fill="#efefef" stroke="#efefef"></path><path d="M510 213L364 279L499 331Z" fill="#fdfdfd" stroke="#fdfdfd"></path><path d="M381 387L438 535L499 396Z" fill="#f6f6f6" stroke="#f6f6f6"></path><path d="M675 299L579 175L630 324Z" fill="#efefef" stroke="#efefef"></path><path d="M391 179L325 265L364 279Z" fill="#f2f2f2" stroke="#f2f2f2"></path><path d="M604 472L727 405L630 324Z" fill="#f2f2f2" stroke="#f2f2f2"></path><path d="M818 196L660 179L675 299Z" fill="#f2f2f2" stroke="#f2f2f2"></path><path d="M675 299L660 179L579 175Z" fill="#efefef" stroke="#efefef"></path><path d="M391 179L364 279L510 213Z" fill="#fdfdfd" stroke="#fdfdfd"></path><path d="M364 279L325 265L381 387Z" fill="#fafafa" stroke="#fafafa"></path><path d="M292 535L415 600L438 535Z" fill="#ededed" stroke="#ededed"></path><path d="M507 133L391 179L510 213Z" fill="#f2f2f2" stroke="#f2f2f2"></path><path d="M604 121L507 133L579 175Z" fill="#ffffff" stroke="#ffffff"></path><path d="M579 175L507 133L510 213Z" fill="#f8f8f8" stroke="#f8f8f8"></path><path d="M628 600L732 477L604 472Z" fill="#f1f1f1" stroke="#f1f1f1"></path><path d="M604 472L732 477L727 405Z" fill="#f8f8f8" stroke="#f8f8f8"></path><path d="M628 600L604 472L524 505Z" fill="#ffffff" stroke="#ffffff"></path><path d="M438 535L480 600L524 505Z" fill="#f2f2f2" stroke="#f2f2f2"></path><path d="M660 179L604 121L579 175Z" fill="#f8f8f8" stroke="#f8f8f8"></path><path d="M480 600L628 600L524 505Z" fill="#efefef" stroke="#efefef"></path><path d="M438 535L415 600L480 600Z" fill="#efefef" stroke="#efefef"></path><path d="M292 535L438 535L381 387Z" fill="#f2f2f2" stroke="#f2f2f2"></path><path d="M732 477L789 415L727 405Z" fill="#efefef" stroke="#efefef"></path><path d="M727 405L839 284L675 299Z" fill="#f4f4f4" stroke="#f4f4f4"></path><path d="M797 528L789 415L732 477Z" fill="#fdfdfd" stroke="#fdfdfd"></path><path d="M325 265L261 407L381 387Z" fill="#f2f2f2" stroke="#f2f2f2"></path><path d="M391 179L285 235L325 265Z" fill="#efefef" stroke="#efefef"></path><path d="M325 265L234 317L261 407Z" fill="#fbfbfb" stroke="#fbfbfb"></path><path d="M261 407L292 535L381 387Z" fill="#efefef" stroke="#efefef"></path><path d="M628 600L709 600L732 477Z" fill="#efefef" stroke="#efefef"></path><path d="M285 235L234 317L325 265Z" fill="#fbfbfb" stroke="#fbfbfb"></path><path d="M226 600L288 600L292 535Z" fill="#ffffff" stroke="#ffffff"></path><path d="M818 196L678 96L660 179Z" fill="#efefef" stroke="#efefef"></path><path d="M660 179L678 96L604 121Z" fill="#fafafa" stroke="#fafafa"></path><path d="M530 0L396 76L507 133Z" fill="#fbfbfb" stroke="#fbfbfb"></path><path d="M709 600L797 528L732 477Z" fill="#f1f1f1" stroke="#f1f1f1"></path><path d="M396 76L331 117L391 179Z" fill="#f4f4f4" stroke="#f4f4f4"></path><path d="M391 179L331 117L285 235Z" fill="#f2f2f2" stroke="#f2f2f2"></path><path d="M285 235L191 195L234 317Z" fill="#f8f8f8" stroke="#f8f8f8"></path><path d="M396 76L391 179L507 133Z" fill="#fafafa" stroke="#fafafa"></path><path d="M530 0L507 133L604 121Z" fill="#fbfbfb" stroke="#fbfbfb"></path><path d="M900 402L839 284L789 415Z" fill="#efefef" stroke="#efefef"></path><path d="M789 415L839 284L727 405Z" fill="#ffffff" stroke="#ffffff"></path><path d="M839 284L818 196L675 299Z" fill="#fdfdfd" stroke="#fdfdfd"></path><path d="M292 535L288 600L415 600Z" fill="#efefef" stroke="#efefef"></path><path d="M207 501L292 535L261 407Z" fill="#fdfdfd" stroke="#fdfdfd"></path><path d="M170 398L207 501L261 407Z" fill="#ffffff" stroke="#ffffff"></path><path d="M234 317L170 398L261 407Z" fill="#ffffff" stroke="#ffffff"></path><path d="M133 294L170 398L234 317Z" fill="#fafafa" stroke="#fafafa"></path><path d="M628 0L530 0L604 121Z" fill="#fbfbfb" stroke="#fbfbfb"></path><path d="M900 472L900 402L789 415Z" fill="#ffffff" stroke="#ffffff"></path><path d="M839 284L900 212L818 196Z" fill="#f1f1f1" stroke="#f1f1f1"></path><path d="M678 96L628 0L604 121Z" fill="#f2f2f2" stroke="#f2f2f2"></path><path d="M717 0L628 0L678 96Z" fill="#f4f4f4" stroke="#f4f4f4"></path><path d="M198 71L191 195L331 117Z" fill="#f4f4f4" stroke="#f4f4f4"></path><path d="M331 117L191 195L285 235Z" fill="#fdfdfd" stroke="#fdfdfd"></path><path d="M900 402L900 277L839 284Z" fill="#fafafa" stroke="#fafafa"></path><path d="M818 196L798 75L678 96Z" fill="#efefef" stroke="#efefef"></path><path d="M530 0L412 0L396 76Z" fill="#fafafa" stroke="#fafafa"></path><path d="M396 76L325 0L331 117Z" fill="#ededed" stroke="#ededed"></path><path d="M125 600L226 600L207 501Z" fill="#fbfbfb" stroke="#fbfbfb"></path><path d="M207 501L226 600L292 535Z" fill="#efefef" stroke="#efefef"></path><path d="M837 600L900 472L797 528Z" fill="#f1f1f1" stroke="#f1f1f1"></path><path d="M797 528L900 472L789 415Z" fill="#fbfbfb" stroke="#fbfbfb"></path><path d="M709 600L837 600L797 528Z" fill="#f8f8f8" stroke="#f8f8f8"></path><path d="M900 92L798 75L818 196Z" fill="#fafafa" stroke="#fafafa"></path><path d="M900 277L900 212L839 284Z" fill="#f2f2f2" stroke="#f2f2f2"></path><path d="M191 195L133 294L234 317Z" fill="#f2f2f2" stroke="#f2f2f2"></path><path d="M170 398L107 481L207 501Z" fill="#f2f2f2" stroke="#f2f2f2"></path><path d="M798 75L717 0L678 96Z" fill="#f4f4f4" stroke="#f4f4f4"></path><path d="M412 0L325 0L396 76Z" fill="#ffffff" stroke="#ffffff"></path><path d="M133 294L112 423L170 398Z" fill="#f8f8f8" stroke="#f8f8f8"></path><path d="M112 423L107 481L170 398Z" fill="#fbfbfb" stroke="#fbfbfb"></path><path d="M837 600L900 600L900 472Z" fill="#fbfbfb" stroke="#fbfbfb"></path><path d="M900 0L780 0L798 75Z" fill="#ededed" stroke="#ededed"></path><path d="M798 75L780 0L717 0Z" fill="#f2f2f2" stroke="#f2f2f2"></path><path d="M228 0L198 71L331 117Z" fill="#f8f8f8" stroke="#f8f8f8"></path><path d="M191 195L68 177L133 294Z" fill="#fbfbfb" stroke="#fbfbfb"></path><path d="M900 212L900 92L818 196Z" fill="#f2f2f2" stroke="#f2f2f2"></path><path d="M107 481L125 600L207 501Z" fill="#ffffff" stroke="#ffffff"></path><path d="M325 0L228 0L331 117Z" fill="#f1f1f1" stroke="#f1f1f1"></path><path d="M198 71L130 73L191 195Z" fill="#f6f6f6" stroke="#f6f6f6"></path><path d="M0 291L0 415L112 423Z" fill="#f4f4f4" stroke="#f4f4f4"></path><path d="M112 423L0 415L107 481Z" fill="#ededed" stroke="#ededed"></path><path d="M122 0L130 73L198 71Z" fill="#fafafa" stroke="#fafafa"></path><path d="M130 73L68 177L191 195Z" fill="#fafafa" stroke="#fafafa"></path><path d="M900 92L900 0L798 75Z" fill="#efefef" stroke="#efefef"></path><path d="M0 291L112 423L133 294Z" fill="#ededed" stroke="#ededed"></path><path d="M107 481L0 512L125 600Z" fill="#f8f8f8" stroke="#f8f8f8"></path><path d="M0 185L0 291L68 177Z" fill="#fdfdfd" stroke="#fdfdfd"></path><path d="M68 177L0 291L133 294Z" fill="#f6f6f6" stroke="#f6f6f6"></path><path d="M228 0L122 0L198 71Z" fill="#f8f8f8" stroke="#f8f8f8"></path><path d="M0 67L0 185L68 177Z" fill="#fbfbfb" stroke="#fbfbfb"></path><path d="M0 415L0 512L107 481Z" fill="#fbfbfb" stroke="#fbfbfb"></path><path d="M0 67L68 177L130 73Z" fill="#fbfbfb" stroke="#fbfbfb"></path><path d="M0 512L0 600L125 600Z" fill="#f6f6f6" stroke="#f6f6f6"></path><path d="M122 0L0 67L130 73Z" fill="#f8f8f8" stroke="#f8f8f8"></path><path d="M122 0L0 0L0 67Z" fill="#f4f4f4" stroke="#f4f4f4"></path></g></svg>