<svg id="visual" viewBox="0 0 900 600" width="900" height="600" xmlns="http://www.w3.org/2000/svg" xmlns:xlink="http://www.w3.org/1999/xlink" version="1.1"><rect x="0" y="0" width="900" height="600" fill="#002233"></rect><path d="M0 37L21.5 43.8C43 50.7 86 64.3 128.8 64.8C171.7 65.3 214.3 52.7 257.2 45.8C300 39 343 38 385.8 44.2C428.7 50.3 471.3 63.7 514.2 64.2C557 64.7 600 52.3 642.8 53.2C685.7 54 728.3 68 771.2 67C814 66 857 50 878.5 42L900 34L900 0L878.5 0C857 0 814 0 771.2 0C728.3 0 685.7 0 642.8 0C600 0 557 0 514.2 0C471.3 0 428.7 0 385.8 0C343 0 300 0 257.2 0C214.3 0 171.7 0 128.8 0C86 0 43 0 21.5 0L0 0Z" fill="#0066FF" stroke-linecap="round" stroke-linejoin="miter"></path></svg>